# xmcd
#
# Track frame offsets:
#	150
#	17020
#	34211
#	53691
#	67879
#	90325
#	101137
#	119729
#	133641
#	150834
#	173699
#	187644
#	204708
#	223708
#	246072
#	262668
#	280228
#	297347
#	312691
#
# Disc length: 4443
#
# Revision: 2
# Processed by: cddbd v1.5.1PL0 Copyright (c) Steve Scherf et al.
# Submitted via: EasyCDDAExtractor 6.0.0.1
# Normalized: r1:DSETVAR1
#
DISCID=08115913
DTITLE=Various Artist - Pure Acoustic
DYEAR=2004
DGENRE=Acoustic
TTITLE0=Cat Stevens - Lady D'Arbanville
TTITLE1=Bob Marley - Redemption Song
TTITLE2=Nick Drake - The Riverman
TTITLE3=Simon and Garfunkel - Scarborough Fair
TTITLE4=Eric Clapton - Let It Grow
TTITLE5=JJ Cale - After Midnight
TTITLE6=Rod Stewart - Reason To Believe
TTITLE7=Van Morrison - Brown Eyed Girl
TTITLE8=Leonard Cohen - Suzanne
TTITLE9=Oasis - Stop Crying Your Heart Out
TTITLE10=Michael Andrews feat. Gary Jules - Mad World
TTITLE11=Counting Crows feat. Vanessa Carlton - Big Yellow Taxi
TTITLE12=Katie Melua - Closest Thing To Crazy
TTITLE13=Edie Brickell and The NEw Bohemians - What I Am
TTITLE14=Badly Drawn Boy - Something To Talk About
TTITLE15=Lightning Seeds - Lucky You
TTITLE16=Tom Baxter - This Boy
TTITLE17=Paul Weller - Wild Wood
TTITLE18=Shawn Mullins - Lullaby
EXTD=
EXTT0=
EXTT1=
EXTT2=
EXTT3=
EXTT4=
EXTT5=
EXTT6=
EXTT7=
EXTT8=
EXTT9=
EXTT10=
EXTT11=
EXTT12=
EXTT13=
EXTT14=
EXTT15=
EXTT16=
EXTT17=
EXTT18=
PLAYORDER=
